# AST/ASF file generated using VICON BodyLanguage
# -----------------------------------------------
:version 1.10
:name VICON
:units
  mass 1.0
  length 0.45
  angle deg
:documentation
   .ast/.asf automatically generated from VICON data using
   VICON BodyBuilder and BodyLanguage model FoxedUp or BRILLIANT.MOD
:root
   order TX TY TZ RX RY RZ
   axis XYZ
   position 0 0 0  
   orientation 0 0 0 
:bonedata
  begin
     id 1 
     name lhipjoint
     direction 0.535335 -0.74333 0.401095 
     length 2.04549 
     axis 0 0 0  XYZ
  end
  begin
     id 2 
     name lfemur
     direction 0.34202 -0.939693 0  
     length 6.95643  
     axis 0 0 20  XYZ
    dof rx ry rz
    limits (-160.0 20.0)
           (-70.0 70.0)
           (-60.0 70.0)
  end
  begin
     id 3 
     name ltibia
     direction 0.34192 -0.939729 0   
     length 5.55969   
     axis 0 0 20   XYZ
    dof rx
    limits (-10.0 170.0)
  end
  begin
     id 4 
     name lfoot
     direction 0.216943 -0.596046 0.773088   
     length 2.27918   
     axis -90 7.62852e-016 20   XYZ
    dof rx rz
    limits (-45.0 90.0)
           (-70.0 20.0)
  end
  begin
     id 5 
     name ltoes
     direction 1.53519e-011 -4.21748e-011 1   
     length 1.05562   
     axis -90 7.62852e-016 20   XYZ
    dof rx
    limits (-90.0 20.0)
  end
  begin
     id 6 
     name rhipjoint
     direction -0.576368 -0.719173 0.38806   
     length 2.1142  
     axis 0 0 0  XYZ 
  end
  begin
     id 7 
     name rfemur
     direction -0.34202 -0.939693 0   
     length 7.07928   
     axis 0 0 -20   XYZ
    dof rx ry rz
    limits (-160.0 20.0)
           (-70.0 70.0)
           (-70.0 60.0)
  end
  begin
     id 8 
     name rtibia
     direction -0.34202 -0.939693 0   
     length 5.79974   
     axis 0 0 -20   XYZ
    dof rx
    limits (-10.0 170.0)
 end
 begin
     id 9 
     name rfoot
     direction -0.189288 -0.520065 0.832888   
     length 2.42173  
     axis -90 -7.62852e-016 -20   XYZ
    dof rx rz
    limits (-45.0 90.0)
           (-20.0 70.0)
  end
  begin
     id 10 
     name rtoes
     direction -1.53574e-011 -4.21658e-011 1   
     length 1.14469   
     axis -90 -7.62852e-016 -20   XYZ
    dof rx
    limits (-90.0 20.0)
  end
  begin
     id 11 
     name lowerback
     direction -0.00135702 0.993803 0.111144   
     length 1.91308   
     axis 0 0 0   XYZ
    dof rx ry rz
    limits (-20.0 45.0)
           (-30.0 30.0)
           (-30.0 30.0)
  end
  begin
     id 12 
     name upperback
     direction -0.0056745 0.999813 0.0184631   
     length 1.9212   
     axis 0 0 0   XYZ
    dof rx ry rz
    limits (-20.0 45.0)
           (-30.0 30.0)
           (-30.0 30.0)
  end
  begin
     id 13 
     name thorax
     direction -0.00733434 0.999426 -0.0330788   
     length 1.94196   
     axis 0 0 0   XYZ
    dof rx ry rz
    limits (-20.0 45.0)
           (-30.0 30.0)
           (-30.0 30.0)
  end
  begin
     id 14 
     name lowerneck
     direction 0.0563074 0.996944 -0.0541571   
     length 2.34257   
     axis 0 0 0   XYZ
    dof rx ry rz
    limits (-20.0 45.0)
           (-30.0 30.0)
           (-30.0 30.0)
  end
  begin
     id 15 
     name upperneck
     direction -0.0544519 0.976166 -0.210085   
     length 2.32506   
     axis 0 0 0   XYZ
    dof rx ry rz
    limits (-20.0 45.0)
           (-30.0 30.0)
           (-30.0 30.0)
  end
  begin
     id 16
     name head
     direction -0.0226035 0.997615 -0.0652205  
     length 2.3648  
     axis 0 0 0   XYZ
    dof rx ry rz
    limits (-20.0 45.0)
           (-30.0 30.0)
           (-30.0 30.0)
  end
  begin
     id 17 
     name lclavicle
     direction 0.92109 0.381297 -0.0787716  
     length 4.0487  
     axis 0 0 0   XYZ
    dof ry rz
    limits (-20.0 10.0)
           (0.0 20.0)
  end
  begin
     id 18 
     name lhumerus
     direction 1 -4.48986e-011 3.56724e-027   
     length 4.94991   
     axis 180 -30 -90   XYZ
    dof rx ry rz
    limits (-60.0 90.0)
           (-90.0 90.0)
           (-90.0 90.0)
  end
  begin
     id 19
     name lradius
     direction 1 -4.48981e-011 8.62147e-027   
     length 2.7606   
     axis 180 -30 -90   XYZ
    dof rx
    limits (-10.0 170.0)
  end
  begin
     id 20
     name lwrist
     direction 1 -4.48989e-011 1.59799e-026   
     length 1.3803   
     axis -1.17785e-014 90 90   XYZ
    dof ry
    limits (-180.0 0.0)
 end
  begin
     id 21 
     name lhand
     direction 1 -4.48896e-011 3.19599e-026   
     length 0.843936   
     axis -2.03931e-014 90 90   XYZ
    dof rx rz
    limits (-90.0 90.0)
           (-45.0 45.0)
  end
  begin
     id 22 
     name lfingers
     direction 1 -4.48887e-011 6.39197e-026   
     length 0.680403   
     axis -4.07862e-014 90 90   XYZ
    dof rx
    limits (0.0 90.0)
  end
  begin
     id 23
     name lthumb
     direction 0.707107 -6.348e-011 0.707107   
     length 0.976926   
     axis -90 45 2.85299e-015   XYZ
    dof rx rz
    limits (-45.0 45.0)
           (-45.0 45.0)
  end
  begin
     id 24 
     name rclavicle
     direction -0.951104 0.307692 -0.026953   
     length 4.21801  
     axis 0 0 0   XYZ 
    dof ry rz
    limits (-10.0 20.0)
           (-20.0 0.0)
  end
  begin
     id 25 
     name rhumerus
     direction -1 -4.4896e-011 -1.8171e-018  
     length 4.32982   
     axis 180 30 90   XYZ
    dof rx ry rz
    limits (-90.0 60.0)
           (-90.0 90.0)
           (-90.0 90.0)
  end
  begin
     id 26 
     name rradius
     direction -1 -4.48959e-011 8.25165e-027   
     length 3.20057   
     axis 180 30 90   XYZ
    dof rx
    limits (-10.0 170.0)
  end
  begin
     id 27 
     name rwrist
     direction -1 -4.48997e-011 1.59799e-026   
     length 1.60029   
     axis -1.17785e-014 -90 -90   XYZ
    dof ry
    limits (-180.0 0.0)
  end
  begin
     id 28
     name rhand
     direction -1 -4.49023e-011 3.19599e-026   
     length 0.960433   
     axis -2.03931e-014 -90 -90   XYZ
    dof rx rz
    limits (-90.0 90.0)
           (-45.0 45.0)
  end
  begin
     id 29
     name rfingers
     direction -1 -4.48802e-011 6.39197e-026   
     length 0.774326   
     axis -4.07862e-014 -90 -90   XYZ
    dof rx
    limits (0.0 90.0)
  end
  begin
     id 30
     name rthumb
     direction -0.707107 -6.34876e-011 0.707107   
     length 1.11178   
     axis -90 -45 -2.85299e-015   XYZ
    dof rx rz
    limits (-45.0 45.0)
           (-45.0 45.0)
  end
:hierarchy
  begin
    root lhipjoint rhipjoint lowerback
    lhipjoint lfemur
    lfemur ltibia
    ltibia lfoot
    lfoot ltoes
    rhipjoint rfemur
    rfemur rtibia
    rtibia rfoot
    rfoot rtoes
    lowerback upperback
    upperback thorax
    thorax lowerneck lclavicle rclavicle
    lowerneck upperneck
    upperneck head
    lclavicle lhumerus
    lhumerus lradius
    lradius lwrist
    lwrist lhand lthumb
    lhand lfingers
    rclavicle rhumerus
    rhumerus rradius
    rradius rwrist
    rwrist rhand rthumb
    rhand rfingers
end

#!OML:ASF C:\KaitlinTest1\Natural Motions\Nikki\Session 2\Nikki.ASF
:FULLY-SPECIFIED
:DEGREES
440
root -13.7232 16.7363 5.07456 -317.048 91.5431 -327.13
lowerback -13.4984 -1.29949 2.27586
upperback -5.68972 -1.71579 -0.568011
thorax 1.49234 -0.779932 -2.11846
lowerneck -9.93139 -12.7369 -8.30002
upperneck 5.03279 42.1293 5.73338
head 167.713 57.0744 -37.8468
rclavicle 3.4017e-014 1.07344e-014
rhumerus -32.8912 -6.91547 -93.463
rradius 25.8106
rwrist 8.8938
rhand -36.5047 3.81545
rfingers 7.12502
rthumb -9.59674 -25.946
lclavicle 3.4017e-014 1.07344e-014
lhumerus -33.8655 8.38921 85.6041
lradius 26.351
lwrist -22.2746
lhand -36.6825 2.54838
lfingers 7.12502
lthumb -9.76836 32.3018
rfemur -10.2126 -19.3705 20.7118
rtibia 13.1699
rfoot -10.9206 14.4777
rtoes 5.88403e-014
lfemur -15.0775 20.1354 -19.633
ltibia 13.7033
lfoot -1.87184 -19.4598
ltoes 3.18055e-015
441
root -13.7249 16.734 5.07475 -317.557 91.572 -327.608
lowerback -13.494 -1.31272 2.2592
upperback -5.66486 -1.73291 -0.564281
thorax 1.51589 -0.788232 -2.10789
lowerneck -9.95742 -12.757 -8.25805
upperneck 5.0265 42.1163 5.73802
head 167.694 57.0367 -37.856
rclavicle -1.37161e-014 -6.75868e-015
rhumerus -32.8934 -6.83213 -93.4406
rradius 25.8614
rwrist 9.13349
rhand -36.8656 4.01978
rfingers 7.12502
rthumb -9.94494 -25.7253
lclavicle -1.37161e-014 -6.75868e-015
lhumerus -33.7596 8.30867 85.5746
lradius 26.2432
lwrist -22.5356
lhand -36.6066 2.80945
lfingers 7.12502
lthumb -9.69513 32.5663
rfemur -10.2031 -19.4937 20.7355
rtibia 13.1853
rfoot -10.9436 14.5337
rtoes 8.74653e-015
lfemur -15.0629 20.1346 -19.6212
ltibia 13.7096
lfoot -1.85651 -19.4977
ltoes 6.36111e-015
442
root -13.7274 16.7349 5.07524 -320.346 91.5748 -330.339
lowerback -13.4149 -1.33597 2.17248
upperback -5.66575 -1.75179 -0.579689
thorax 1.47413 -0.797611 -2.07559
lowerneck -9.96523 -12.7672 -8.23031
upperneck 5.06074 42.2232 5.77573
head 167.753 56.8907 -37.8348
rclavicle 1.963e-015 -1.98785e-016
rhumerus -32.8945 -6.73376 -93.3906
rradius 25.8064
rwrist 9.17057
rhand -37.0558 4.1755
rfingers 7.12502
rthumb -10.1284 -25.5607
lclavicle 1.963e-015 -1.98785e-016
lhumerus -33.7012 8.33137 85.4965
lradius 26.0774
lwrist -22.8331
lhand -36.6006 2.80603
lfingers 7.12502
lthumb -9.68934 32.5632
rfemur -10.1268 -19.4446 20.6346
rtibia 13.1614
rfoot -10.9032 14.4734
rtoes -2.14687e-014
lfemur -15.0351 20.1674 -19.6792
ltibia 13.7531
lfoot -1.87424 -19.5757
ltoes 2.38542e-014
443
root -13.728 16.7345 5.0764 -320.287 91.6188 -330.249
lowerback -13.4224 -1.34337 2.17622
upperback -5.63957 -1.76401 -0.570949
thorax 1.50511 -0.803543 -2.07094
lowerneck -10.007 -12.7708 -8.21062
upperneck 5.08054 42.3327 5.80928
head 167.847 56.7466 -37.7994
rclavicle 2.02512e-014 5.36719e-015
rhumerus -32.9608 -6.62146 -93.3423
rradius 25.9122
rwrist 9.16375
rhand -37.248 4.26857
rfingers 7.12502
rthumb -10.3139 -25.4585
lclavicle 2.02512e-014 5.36719e-015
lhumerus -33.5904 8.35976 85.4309
lradius 25.8664
lwrist -23.1735
lhand -36.5396 2.89475
lfingers 7.12502
lthumb -9.63045 32.6546
rfemur -10.0886 -19.431 20.6537
rtibia 13.1546
rfoot -10.8669 14.4194
rtoes -1.90833e-014
lfemur -15.0275 20.1571 -19.6384
ltibia 13.7978
lfoot -1.89584 -19.5839
ltoes -7.15625e-014
444
root -13.7294 16.7343 5.07717 -320.649 91.6812 -330.588
lowerback -13.4438 -1.35413 2.18492
upperback -5.60846 -1.78125 -0.574714
thorax 1.54789 -0.811972 -2.0833
lowerneck -10.0511 -12.8058 -8.15447
upperneck 5.07874 42.3329 5.81488
head 167.775 56.7206 -37.8555
rclavicle 1.07344e-014 -3.97569e-015
rhumerus -32.9392 -6.72974 -93.2447
rradius 25.8637
rwrist 9.31407
rhand -37.4545 4.19338
rfingers 7.12502
rthumb -10.5131 -25.5237
lclavicle 1.07344e-014 -3.97569e-015
lhumerus -33.4999 8.69921 85.2092
lradius 25.6296
lwrist -23.8405
lhand -36.4275 2.82239
lfingers 7.12502
lthumb -9.5223 32.5872
rfemur -10.0561 -19.4002 20.6742
rtibia 13.1565
rfoot -10.884 14.3447
rtoes -7.55382e-014
lfemur -15.0265 20.1827 -19.6129
ltibia 13.7941
lfoot -1.85344 -19.6802
ltoes -8.74653e-014
445
root -13.7305 16.7321 5.07844 -321.044 91.7192 -330.952
lowerback -13.4474 -1.35631 2.17499
upperback -5.58981 -1.78376 -0.584303
thorax 1.56931 -0.813088 -2.08847
lowerneck -10.0416 -12.8601 -8.09069
upperneck 5.07364 42.2471 5.80456
head 167.621 56.7428 -37.9322
rclavicle 1.60519e-014 3.97569e-016
rhumerus -32.9689 -6.8358 -93.1523
rradius 25.7834
rwrist 9.36459
rhand -37.5237 4.21453
rfingers 7.12502
rthumb -10.5799 -25.4992
lclavicle 1.60519e-014 3.97569e-016
lhumerus -33.4343 8.88987 85.0432
lradius 25.3911
lwrist -24.345
lhand -36.308 2.90637
lfingers 7.12502
lthumb -9.40698 32.6764
rfemur -10.0058 -19.4526 20.6922
rtibia 13.1361
rfoot -10.9374 14.3445
rtoes 8.74653e-015
lfemur -15.0085 20.1109 -19.5764
ltibia 13.824
lfoot -1.89859 -19.6125
ltoes -6.20208e-014
446
root -13.732 16.7321 5.07874 -323.213 91.721 -333.078
lowerback -13.415 -1.37758 2.09876
upperback -5.5813 -1.80246 -0.593341
thorax 1.56236 -0.821873 -2.05683
lowerneck -10.0339 -12.8633 -8.08471
upperneck 5.09057 42.2876 5.81726
head 167.631 56.6889 -37.9287
rclavicle 9.06955e-015 -2.98177e-015
rhumerus -33.0207 -7.00242 -92.9851
rradius 25.6711
rwrist 9.50408
rhand -37.6081 4.24888
rfingers 7.12502
rthumb -10.6613 -25.4606
lclavicle 9.06955e-015 -2.98177e-015
lhumerus -33.4221 9.06018 84.9227
lradius 25.1827
lwrist -24.64
lhand -36.2726 2.97394
lfingers 7.12502
lthumb -9.37282 32.7456
rfemur -9.94676 -19.3991 20.6123
rtibia 13.1279
rfoot -10.9023 14.2663
rtoes -2.62396e-014
lfemur -14.9773 20.0911 -19.6223
ltibia 13.8417
lfoot -1.91379 -19.6317
ltoes 9.54166e-015
447
root -13.7333 16.7316 5.07946 -323.45 91.7573 -333.291
lowerback -13.4414 -1.38121 2.09181
upperback -5.54901 -1.80844 -0.597564
thorax 1.61018 -0.824439 -2.05944
lowerneck -10.0456 -12.8948 -8.04403
upperneck 5.08478 42.2466 5.81314
head 167.548 56.7052 -37.9779
rclavicle 6.36111e-015 -2.18663e-015
rhumerus -33.0872 -7.21278 -92.8097
rradius 25.6137
rwrist 9.57124
rhand -37.6189 4.23575
rfingers 7.12502
rthumb -10.6717 -25.4732
lclavicle 6.36111e-015 -2.18663e-015
lhumerus -33.3911 9.42128 84.6845
lradius 24.9273
lwrist -25.4127
lhand -36.1564 3.1731
lfingers 7.12502
lthumb -9.26067 32.9497
rfemur -9.9187 -19.3836 20.622
rtibia 13.1277
rfoot -10.8651 14.2027
rtoes 7.31528e-014
lfemur -14.9565 20.0401 -19.5983
ltibia 13.8428
lfoot -1.90623 -19.632
ltoes 7.79236e-014
448
root -13.7348 16.7312 5.08012 -324.772 91.7829 -334.598
lowerback -13.4708 -1.38424 2.06042
upperback -5.51204 -1.81013 -0.62615
thorax 1.66476 -0.824735 -2.07325
lowerneck -10.0669 -12.9177 -8.00084
upperneck 5.07138 42.2132 5.82403
head 167.572 56.6987 -37.9661
rclavicle 1.98785e-016 -1.98785e-015
rhumerus -33.0412 -7.53626 -92.6436
rradius 25.3933
rwrist 9.70722
rhand -37.6502 4.2109
rfingers 7.12502
rthumb -10.7019 -25.4965
lclavicle 1.98785e-016 -1.98785e-015
lhumerus -33.3504 9.63836 84.5084
lradius 24.6774
lwrist -25.836
lhand -36.1318 3.10091
lfingers 7.12502
lthumb -9.23699 32.8786
rfemur -9.90615 -19.3717 20.5947
rtibia 13.1415
rfoot -10.8605 14.1458
rtoes -7.15625e-014
lfemur -14.9417 20.005 -19.6169
ltibia 13.8228
lfoot -1.88846 -19.6253
ltoes -1.74931e-014
449
root -13.7374 16.7318 5.08169 -325.626 91.8393 -335.432
lowerback -13.4348 -1.40876 2.03366
upperback -5.51594 -1.83891 -0.616158
thorax 1.64123 -0.839053 -2.05076
lowerneck -10.0618 -12.924 -8.00107
upperneck 5.08877 42.2542 5.83058
head 167.556 56.6485 -37.9789
rclavicle 4.99446e-015 -1.98785e-015
rhumerus -33.1163 -7.84121 -92.414
rradius 25.2058
rwrist 9.8578
rhand -37.6291 3.94969
rfingers 7.12502
rthumb -10.6815 -25.7588
lclavicle 4.99446e-015 -1.98785e-015
lhumerus -33.3609 9.90584 84.3565
lradius 24.4343
lwrist -26.1777
lhand -36.0641 3.19919
lfingers 7.12502
lthumb -9.17165 32.9797
rfemur -9.88066 -19.372 20.6015
rtibia 13.1406
rfoot -10.8714 14.0872
rtoes 9.54166e-015
lfemur -14.9326 19.9699 -19.5978
ltibia 13.8284
lfoot -1.88947 -19.6362
ltoes -6.36111e-015
450
root -13.7376 16.731 5.08225 -325.796 91.852 -335.555
lowerback -13.4336 -1.40545 2.03438
upperback -5.48217 -1.83637 -0.630179
thorax 1.6756 -0.837978 -2.06598
lowerneck -10.0674 -12.9536 -7.96739
upperneck 5.08176 42.2015 5.8193
head 167.446 56.6914 -38.0424
rclavicle 8.77137e-015 -1.78906e-015
rhumerus -33.1199 -8.25435 -92.1624
rradius 24.9035
rwrist 10.0975
rhand -37.6226 3.86759
rfingers 7.12502
rthumb -10.6752 -25.8412
lclavicle 8.77137e-015 -1.78906e-015
lhumerus -33.3885 10.2708 84.1302
lradius 24.218
lwrist -26.6166
lhand -35.7666 3.56284
lfingers 7.12502
lthumb -8.88461 33.3558
rfemur -9.83106 -19.3793 20.589
rtibia 13.1498
rfoot -10.916 14.084
rtoes 2.78299e-014
lfemur -14.8727 19.9004 -19.5658
ltibia 13.8231
lfoot -1.87362 -19.6011
ltoes 3.02153e-014
451
root -13.7385 16.7304 5.08285 -326.238 91.8674 -335.988
lowerback -13.4635 -1.39812 2.02551
upperback -5.45732 -1.82681 -0.644741
thorax 1.718 -0.832824 -2.07608
lowerneck -10.0619 -12.9762 -7.95367
upperneck 5.06451 42.1262 5.80628
head 167.397 56.7479 -38.0627
rclavicle 1.02623e-014 -1.39149e-015
rhumerus -33.1128 -8.7127 -91.8843
rradius 24.5529
rwrist 10.3719
rhand -37.5854 3.83342
rfingers 7.12502
rthumb -10.6394 -25.8772
lclavicle 1.02623e-014 -1.39149e-015
lhumerus -33.3968 10.2083 84.0722
lradius 23.9746
lwrist -26.86
lhand -35.7726 3.57207
lfingers 7.12502
lthumb -8.8904 33.3648
rfemur -9.82031 -19.3958 20.5853
rtibia 13.1463
rfoot -10.8936 14.0671
rtoes -1.90833e-014
lfemur -14.8642 19.8397 -19.559
ltibia 13.8327
lfoot -1.86598 -19.5767
ltoes -1.11319e-014
